<svg xmlns="http://www.w3.org/2000/svg" xmlns:xlink="http://www.w3.org/1999/xlink" viewBox="0 0 1080 1080"><defs><style>.cls-1{isolation:isolate;}.cls-2{fill:#fff;}.cls-3{font-size:76.01px;font-family:OpenSans-Bold, Open Sans;font-weight:700;}.cls-3,.cls-4{fill:#2c4b9a;}.cls-4{font-size:29.67px;font-family:OpenSans, Open Sans;}.cls-5{fill:url(#Degradado_sin_nombre_20);}.cls-14,.cls-6,.cls-8{mix-blend-mode:multiply;}.cls-6{fill:url(#Degradado_sin_nombre_17);}.cls-7{fill:url(#Degradado_sin_nombre_20-2);}.cls-8{fill:url(#Degradado_sin_nombre_17-2);}.cls-9{fill:url(#Degradado_sin_nombre_30);}.cls-10{fill:url(#Degradado_sin_nombre_30-2);}.cls-11{fill:url(#Degradado_sin_nombre_34);}.cls-12{fill:url(#Degradado_sin_nombre_32);}.cls-13{fill:url(#Degradado_sin_nombre_27);}.cls-14{opacity:0.5;}.cls-15{fill:url(#Degradado_sin_nombre_23);}</style><linearGradient id="Degradado_sin_nombre_20" x1="745.71" y1="364.37" x2="828" y2="655.02" gradientUnits="userSpaceOnUse"><stop offset="0.04" stop-color="#fd7"/><stop offset="1" stop-color="#ff8000"/></linearGradient><linearGradient id="Degradado_sin_nombre_17" x1="788.5" y1="336.8" x2="788.5" y2="515.5" gradientUnits="userSpaceOnUse"><stop offset="0.04" stop-color="#fd7" stop-opacity="0"/><stop offset="0.17" stop-color="#ffca5f" stop-opacity="0.21"/><stop offset="0.34" stop-color="#ffb442" stop-opacity="0.44"/><stop offset="0.5" stop-color="#ffa12a" stop-opacity="0.64"/><stop offset="0.65" stop-color="#ff9318" stop-opacity="0.8"/><stop offset="0.79" stop-color="#ff880b" stop-opacity="0.91"/><stop offset="0.91" stop-color="#ff8203" stop-opacity="0.98"/><stop offset="1" stop-color="#ff8000"/></linearGradient><linearGradient id="Degradado_sin_nombre_20-2" x1="252.4" y1="343.95" x2="324.19" y2="643.35" xlink:href="#Degradado_sin_nombre_20"/><linearGradient id="Degradado_sin_nombre_17-2" x1="293.53" y1="336.81" x2="293.53" y2="515.5" xlink:href="#Degradado_sin_nombre_17"/><linearGradient id="Degradado_sin_nombre_30" x1="709.16" y1="282.31" x2="709.16" y2="331.63" gradientUnits="userSpaceOnUse"><stop offset="0.02" stop-color="#00c4c3"/><stop offset="1" stop-color="blue"/></linearGradient><linearGradient id="Degradado_sin_nombre_30-2" x1="372.87" y1="282.31" x2="372.87" y2="331.63" xlink:href="#Degradado_sin_nombre_30"/><linearGradient id="Degradado_sin_nombre_34" x1="495.68" y1="268.78" x2="577.97" y2="648.72" gradientUnits="userSpaceOnUse"><stop offset="0.03" stop-color="#ace077"/><stop offset="1" stop-color="#009846"/></linearGradient><linearGradient id="Degradado_sin_nombre_32" x1="539.26" y1="649.78" x2="541.1" y2="465.66" gradientUnits="userSpaceOnUse"><stop offset="0.03" stop-color="#ace077" stop-opacity="0"/><stop offset="0.26" stop-color="#72c866" stop-opacity="0.34"/><stop offset="0.49" stop-color="#41b358" stop-opacity="0.62"/><stop offset="0.7" stop-color="#1da44e" stop-opacity="0.83"/><stop offset="0.88" stop-color="#089b48" stop-opacity="0.96"/><stop offset="1" stop-color="#009846"/></linearGradient><linearGradient id="Degradado_sin_nombre_27" x1="515.36" y1="439.6" x2="563.59" y2="642.51" xlink:href="#Degradado_sin_nombre_30"/><linearGradient id="Degradado_sin_nombre_23" x1="540.98" y1="573.99" x2="540.98" y2="649.14" gradientUnits="userSpaceOnUse"><stop offset="0" stop-color="blue"/><stop offset="0.98" stop-color="#00c4c3" stop-opacity="0"/></linearGradient></defs><g class="cls-1"><g id="Logo_Color" data-name="Logo Color"><rect class="cls-2" width="1080" height="1080"/><text class="cls-3" transform="translate(241.63 740.21) scale(1.02 1)">FUNDAPROTAN</text><text class="cls-4" transform="translate(237.28 804.66) scale(1.02 1)">AGUA Y NATURALEZA, ESPERANZA DE VIDA</text><path class="cls-5" d="M788.5,641.87a126.36,126.36,0,0,1-89.35-215.71L788.5,336.8l89.35,89.36A126.36,126.36,0,0,1,788.5,641.87Zm0-248.52-61.08,61.08a86.38,86.38,0,1,0,122.16,0Z"/><path class="cls-6" d="M702.12,515.5a85.77,85.77,0,0,1,25.3-61.07l61.08-61.08,61.08,61.08a85.81,85.81,0,0,1,25.3,61.07c10.53-81.94-86.38-178.7-86.38-178.7S691.58,433.56,702.12,515.5Z"/><path class="cls-7" d="M293.54,641.87a126.36,126.36,0,0,1-89.35-215.71l89.35-89.36,89.35,89.36a126.36,126.36,0,0,1-89.35,215.71Zm0-248.52-61.08,61.08a86.38,86.38,0,1,0,122.16,0Zm-75.22,46.94h0Z"/><path class="cls-8" d="M293.28,337.06c-5.27,5.33-96.36,98.86-86.13,178.44h0a85.77,85.77,0,0,1,25.3-61.07l61.08-61.08,61.08,61.08a85.83,85.83,0,0,1,25.3,61.06c10.51-81.94-86.36-178.66-86.38-178.68Z"/><circle class="cls-9" cx="709.16" cy="321.1" r="29.28"/><circle class="cls-10" cx="372.87" cy="321.1" r="29.28"/><path class="cls-11" d="M541,641.79a163.94,163.94,0,0,1-116-279.87L541,246l116,116c63.94,63.94,63.94,168,0,231.92A163.53,163.53,0,0,1,541,641.79Zm0-339.29-87.69,87.69a124,124,0,1,0,175.37,0Z"/><path class="cls-12" d="M425.06,593.84a164.19,164.19,0,0,0,231.92,0c63.9-63.91,63.93-167.86.1-231.81l-.18-.11s36.45,70.77,2.26,153.58l0,0a124,124,0,0,1-236.29,0l0,0c-34.19-82.81,2.27-153.58,2.27-153.58a164,164,0,0,0,0,231.92Z"/><path class="cls-13" d="M541,641.82a94.43,94.43,0,0,1-66.8-161.22L541,413.81l66.8,66.79A94.42,94.42,0,0,1,541,641.82Zm0-171.47-38.53,38.52a54.49,54.49,0,1,0,77,0Z"/><g class="cls-14"><path class="cls-15" d="M607.82,575.72a94.5,94.5,0,0,1-159.31-47.56,95.29,95.29,0,0,0-2,19.24,94.45,94.45,0,1,0,186.9-19.24A93.92,93.92,0,0,1,607.82,575.72Z"/></g></g></g></svg>